<svg xmlns="http://www.w3.org/2000/svg" viewBox="0 0 1500 520"><defs><linearGradient id="g"><stop stop-color="#22d3ee"/><stop offset="1" stop-color="#6366f1"/></linearGradient><style>.b{fill:#0f172a;stroke:#334155;stroke-width:2}.t{font:700 22px ui-monospace,monospace;fill:#e2e8f0}.s{font:500 17px ui-monospace,monospace;fill:#94a3b8}.a{stroke:url(#g);stroke-width:8;stroke-linecap:round;stroke-dasharray:16 16;animation:d 1.2s linear infinite}@keyframes d{to{stroke-dashoffset:-32}}@keyframes p{50%{opacity:.35;transform:scale(1.05)}}.p{animation:p 1.8s ease-in-out infinite;transform-origin:center}</style></defs><rect width="1500" height="520" rx="32" fill="#020617"/><text x="70" y="75" class="t" style="font-size:38px">RECORDING PIPELINE</text><text x="70" y="110" class="s">Real-time media flow · chunk-safe capture · hardware-aware finalization</text><g transform="translate(70 185)"><rect width="230" height="170" rx="22" class="b"/><text x="35" y="65" class="t">DISPLAY</text><text x="35" y="100" class="s">Windows desktop</text><circle cx="35" cy="135" r="10" fill="#22c55e" class="p"/><text x="58" y="142" class="s">capturing</text></g><path d="M305 270h95" class="a"/><g transform="translate(420 185)"><rect width="230" height="170" rx="22" class="b"/><text x="35" y="65" class="t">OVERLAY</text><text x="35" y="100" class="s">camera bubble</text><text x="35" y="135" class="s">always-on-top</text></g><path d="M655 270h95" class="a"/><g transform="translate(770 185)"><rect width="230" height="170" rx="22" class="b"/><text x="35" y="65" class="t">MEDIA</text><text x="35" y="100" class="s">WebM chunks</text><text x="35" y="135" class="s">incremental writes</text></g><path d="M1005 270h95" class="a"/><g transform="translate(1120 185)"><rect width="310" height="170" rx="22" class="b"/><text x="35" y="65" class="t">FFMPEG → MP4</text><text x="35" y="100" class="s">hardware encoder first</text><text x="35" y="135" class="s">software fallback</text></g></svg>