<svg xmlns="http://www.w3.org/2000/svg" viewBox="0 0 1400 520"><defs><linearGradient id="g"><stop stop-color="#38bdf8"/><stop offset="1" stop-color="#22c55e"/></linearGradient><style>.b{fill:#0f172a;stroke:#334155;stroke-width:2}.t{font:700 21px ui-monospace,monospace;fill:#e2e8f0}.s{font:500 16px ui-monospace,monospace;fill:#94a3b8}.l{stroke:url(#g);stroke-width:6;stroke-linecap:round;stroke-dasharray:12 12;animation:d 1s linear infinite}.p{animation:p 1.8s ease-in-out infinite}@keyframes d{to{stroke-dashoffset:-24}}@keyframes p{50%{opacity:.25;transform:scale(1.06)}}</style></defs><rect width="1400" height="520" rx="32" fill="#020617"/><text x="70" y="70" class="t" style="font-size:38px">BUILD → RELEASE</text><text x="70" y="105" class="s">From source tree to a distributable Windows artifact.</text><g transform="translate(70 175)"><rect width="250" height="180" rx="24" class="b"/><text x="30" y="55" class="t">SOURCE</text><text x="30" y="88" class="s">git push</text><text x="30" y="122" class="s">package.json</text><text x="30" y="150" class="s">electron.vite.config</text></g><path d="M325 265h100" class="l"/><g transform="translate(430 175)"><rect width="250" height="180" rx="24" class="b"/><text x="30" y="55" class="t">BUILD</text><text x="30" y="92" class="s">npm run dist</text><rect x="30" y="120" width="190" height="18" rx="9" fill="#172554"/><rect x="30" y="120" width="150" height="18" rx="9" fill="url(#g)" class="p"/></g><path d="M685 265h100" class="l"/><g transform="translate(790 175)"><rect width="250" height="180" rx="24" class="b"/><text x="30" y="55" class="t">ARTIFACTS</text><text x="30" y="92" class="s">release/</text><text x="30" y="122" class="s">win-x64</text><text x="30" y="150" class="s">NSIS package</text></g><path d="M1045 265h100" class="l"/><g transform="translate(1150 175)"><rect width="190" height="180" rx="24" class="b p"/><text x="30" y="55" class="t">RELEASE</text><text x="30" y="92" class="s">GitHub</text><text x="30" y="122" class="s">Windows</text><text x="30" y="150" class="s">download</text></g></svg>