<svg xmlns="http://www.w3.org/2000/svg" viewBox="0 0 1400 460"><defs><linearGradient id="g"><stop stop-color="#38bdf8"/><stop offset="1" stop-color="#8b5cf6"/></linearGradient><style>.c{fill:#0f172a;stroke:#334155;stroke-width:2}.t{font:700 20px ui-monospace,monospace;fill:#e2e8f0}.s{font:500 15px ui-monospace,monospace;fill:#94a3b8}.p{animation:p 1.8s ease-in-out infinite}.l{stroke:url(#g);stroke-width:6;stroke-dasharray:12 12;animation:d 1s linear infinite}@keyframes p{50%{opacity:.3;transform:scale(1.05)}}@keyframes d{to{stroke-dashoffset:-24}}</style></defs><rect width="1400" height="460" rx="32" fill="#020617"/><text x="70" y="70" class="t" style="font-size:38px">ROADMAP · SHIP THE NEXT LAYER</text><text x="70" y="105" class="s">Each milestone moves the product closer to a production-grade teaching studio.</text><g transform="translate(85 165)"><rect width="240" height="180" rx="24" class="c p"/><text x="28" y="55" class="t">NOW</text><text x="28" y="90" class="s">Core recording</text><text x="28" y="118" class="s">Overlay · FFmpeg</text><text x="28" y="146" class="s">Windows x64</text></g><path d="M335 255h95" class="l"/><g transform="translate(440 165)"><rect width="240" height="180" rx="24" class="c"/><text x="28" y="55" class="t">NEXT</text><text x="28" y="90" class="s">Hotkey editor</text><text x="28" y="118" class="s">Recovery UI</text><text x="28" y="146" class="s">Multi-monitor</text></g><path d="M690 255h95" class="l"/><g transform="translate(790 165)"><rect width="240" height="180" rx="24" class="c p"/><text x="28" y="55" class="t">SCALE</text><text x="28" y="90" class="s">Automated builds</text><text x="28" y="118" class="s">Code signing</text><text x="28" y="146" class="s">More export profiles</text></g><path d="M1040 255h95" class="l"/><g transform="translate(1140 165)"><rect width="180" height="180" rx="24" class="c"><text x="28" y="55" class="t">SHIP</text><text x="28" y="90" class="s">Polished</text><text x="28" y="118" class="s">Production</text><text x="28" y="146" class="s">Ready</text></g></svg>